<?xml version="1.0" ?><!DOCTYPE svg  PUBLIC '-//W3C//DTD SVG 1.1//EN'  'http://www.w3.org/Graphics/SVG/1.1/DTD/svg11.dtd'><svg enable-background="new 0 0 32 32" height="32px" id="Layer_1" version="1.1" viewBox="0 0 32 32" width="32px" xml:space="preserve" xmlns="http://www.w3.org/2000/svg" xmlns:xlink="http://www.w3.org/1999/xlink"><g><polyline fill="none" points="   649,137.999 675,137.999 675,155.999 661,155.999  " stroke="#FFFFFF" stroke-linecap="round" stroke-linejoin="round" stroke-miterlimit="10" stroke-width="2"/><polyline fill="none" points="   653,155.999 649,155.999 649,141.999  " stroke="#FFFFFF" stroke-linecap="round" stroke-linejoin="round" stroke-miterlimit="10" stroke-width="2"/><polyline fill="none" points="   661,156 653,162 653,156  " stroke="#FFFFFF" stroke-linecap="round" stroke-linejoin="round" stroke-miterlimit="10" stroke-width="2"/></g><g><path d="M16,30c-3.74,0-7.255-1.456-9.899-4.101C1.779,21.578,0.752,15.025,3.547,9.595C3.8,9.104,4.402,8.911,4.894,9.163   s0.685,0.855,0.432,1.347C2.93,15.164,3.81,20.78,7.515,24.485C9.781,26.752,12.794,28,16,28c3.205,0,6.219-1.248,8.485-3.515   S28,19.205,28,16c0-3.206-1.248-6.219-3.515-8.485S19.206,4,16,4c-3.206,0-6.219,1.249-8.485,3.515   c-0.391,0.391-1.023,0.391-1.414,0s-0.391-1.023,0-1.414C8.745,3.457,12.26,2,16,2c3.74,0,7.256,1.457,9.899,4.101   C28.544,8.745,30,12.26,30,16c0,3.739-1.456,7.255-4.101,9.899C23.256,28.544,19.74,30,16,30z"/></g><g><path d="M10.343,22.656c-0.261,0-0.517-0.103-0.707-0.293c-0.262-0.262-0.357-0.646-0.249-1l2.657-8.657   c0.097-0.317,0.346-0.565,0.663-0.663l8.658-2.657c0.353-0.11,0.738-0.013,1,0.249s0.357,0.646,0.249,1l-2.657,8.657   c-0.098,0.317-0.346,0.565-0.663,0.663l-8.656,2.656C10.54,22.642,10.441,22.656,10.343,22.656z M13.8,13.8l-1.948,6.347   l6.347-1.948l1.948-6.347L13.8,13.8z"/></g></svg>